<mxfile host="app.diagrams.net" agent="Mozilla/5.0 (Windows NT 6.1; Win64; x64; rv:109.0) Gecko/20100101 Firefox/115.0" version="28.0.4">
  <diagram name="Page-1" id="Rbdsz5qpxLwi2ZQge7if">
    <mxGraphModel dx="756" dy="1519" grid="1" gridSize="10" guides="1" tooltips="1" connect="1" arrows="1" fold="1" page="1" pageScale="1" pageWidth="850" pageHeight="1100" math="0" shadow="0">
      <root>
        <mxCell id="0" />
        <mxCell id="1" parent="0" />
        <mxCell id="dKTOwhcVV6ruJDF4YYmx-1" value="Scholarship Configuration Center" style="strokeWidth=1;shadow=0;dashed=0;align=center;html=1;shape=mxgraph.mockup.containers.window;align=left;verticalAlign=top;spacingLeft=8;strokeColor2=#008cff;strokeColor3=#c4c4c4;fontColor=#666666;mainText=;fontSize=17;labelBackgroundColor=none;whiteSpace=wrap;" parent="1" vertex="1">
          <mxGeometry x="230" y="-100" width="740" height="590" as="geometry" />
        </mxCell>
        <mxCell id="dKTOwhcVV6ruJDF4YYmx-2" value="" style="swimlane;shape=mxgraph.bootstrap.anchor;strokeColor=light-dark(#121212, #ededed);fillColor=#ffffff;fontColor=#000000;fontStyle=0;childLayout=stackLayout;horizontal=1;startSize=0;horizontalStack=0;resizeParent=1;resizeParentMax=0;resizeLast=0;collapsible=0;marginBottom=0;whiteSpace=wrap;html=1;" parent="1" vertex="1">
          <mxGeometry x="30" y="-130" width="150" height="550" as="geometry" />
        </mxCell>
        <mxCell id="dKTOwhcVV6ruJDF4YYmx-3" value="Dashboard" style="text;strokeColor=light-dark(#000000, #229afd);align=center;verticalAlign=middle;spacingLeft=10;spacingRight=10;overflow=hidden;points=[[0,0.5],[1,0.5]];portConstraint=eastwest;rotatable=0;whiteSpace=wrap;html=1;shape=mxgraph.mockup.topButton;rSize=10;fillColor=light-dark(#ffffff, #229afd);fontColor=#000000;fontSize=17;fontStyle=1;" parent="dKTOwhcVV6ruJDF4YYmx-2" vertex="1">
          <mxGeometry width="150" height="50" as="geometry" />
        </mxCell>
        <mxCell id="dKTOwhcVV6ruJDF4YYmx-4" value="Configuration" style="text;strokeColor=light-dark(#000000, #5c79a3);align=center;verticalAlign=middle;spacingLeft=10;spacingRight=10;overflow=hidden;points=[[0,0.5],[1,0.5]];portConstraint=eastwest;rotatable=0;whiteSpace=wrap;html=1;rSize=5;fillColor=#dae8fc;fontSize=17;fontStyle=1;" parent="dKTOwhcVV6ruJDF4YYmx-2" vertex="1">
          <mxGeometry y="50" width="150" height="50" as="geometry" />
        </mxCell>
        <mxCell id="dKTOwhcVV6ruJDF4YYmx-5" value="Applications" style="text;strokeColor=inherit;align=center;verticalAlign=middle;spacingLeft=10;spacingRight=10;overflow=hidden;points=[[0,0.5],[1,0.5]];portConstraint=eastwest;rotatable=0;whiteSpace=wrap;html=1;rSize=5;fillColor=inherit;fontColor=inherit;fontSize=17;fontStyle=1;" parent="dKTOwhcVV6ruJDF4YYmx-2" vertex="1">
          <mxGeometry y="100" width="150" height="50" as="geometry" />
        </mxCell>
        <mxCell id="dKTOwhcVV6ruJDF4YYmx-74" value="GPA Monitor" style="text;strokeColor=inherit;align=center;verticalAlign=middle;spacingLeft=10;spacingRight=10;overflow=hidden;points=[[0,0.5],[1,0.5]];portConstraint=eastwest;rotatable=0;whiteSpace=wrap;html=1;rSize=5;fillColor=inherit;fontColor=inherit;fontSize=17;fontStyle=1;" parent="dKTOwhcVV6ruJDF4YYmx-2" vertex="1">
          <mxGeometry y="150" width="150" height="50" as="geometry" />
        </mxCell>
        <mxCell id="dKTOwhcVV6ruJDF4YYmx-75" value="Continuation Review" style="text;strokeColor=inherit;align=center;verticalAlign=middle;spacingLeft=10;spacingRight=10;overflow=hidden;points=[[0,0.5],[1,0.5]];portConstraint=eastwest;rotatable=0;whiteSpace=wrap;html=1;rSize=5;fillColor=inherit;fontColor=inherit;fontSize=17;fontStyle=1;" parent="dKTOwhcVV6ruJDF4YYmx-2" vertex="1">
          <mxGeometry y="200" width="150" height="50" as="geometry" />
        </mxCell>
        <mxCell id="dKTOwhcVV6ruJDF4YYmx-76" value="Quota Management" style="text;strokeColor=inherit;align=center;verticalAlign=middle;spacingLeft=10;spacingRight=10;overflow=hidden;points=[[0,0.5],[1,0.5]];portConstraint=eastwest;rotatable=0;whiteSpace=wrap;html=1;rSize=5;fillColor=inherit;fontColor=inherit;fontSize=17;fontStyle=1;" parent="dKTOwhcVV6ruJDF4YYmx-2" vertex="1">
          <mxGeometry y="250" width="150" height="50" as="geometry" />
        </mxCell>
        <mxCell id="dKTOwhcVV6ruJDF4YYmx-77" value="Sibling Matching" style="text;strokeColor=inherit;align=center;verticalAlign=middle;spacingLeft=10;spacingRight=10;overflow=hidden;points=[[0,0.5],[1,0.5]];portConstraint=eastwest;rotatable=0;whiteSpace=wrap;html=1;rSize=5;fillColor=inherit;fontColor=inherit;fontSize=17;fontStyle=1;" parent="dKTOwhcVV6ruJDF4YYmx-2" vertex="1">
          <mxGeometry y="300" width="150" height="50" as="geometry" />
        </mxCell>
        <mxCell id="dKTOwhcVV6ruJDF4YYmx-78" value="Type Activation" style="text;strokeColor=inherit;align=center;verticalAlign=middle;spacingLeft=10;spacingRight=10;overflow=hidden;points=[[0,0.5],[1,0.5]];portConstraint=eastwest;rotatable=0;whiteSpace=wrap;html=1;rSize=5;fillColor=inherit;fontColor=inherit;fontSize=17;fontStyle=1;" parent="dKTOwhcVV6ruJDF4YYmx-2" vertex="1">
          <mxGeometry y="350" width="150" height="50" as="geometry" />
        </mxCell>
        <mxCell id="dKTOwhcVV6ruJDF4YYmx-79" value="Communication" style="text;strokeColor=inherit;align=center;verticalAlign=middle;spacingLeft=10;spacingRight=10;overflow=hidden;points=[[0,0.5],[1,0.5]];portConstraint=eastwest;rotatable=0;whiteSpace=wrap;html=1;rSize=5;fillColor=inherit;fontColor=inherit;fontSize=17;fontStyle=1;" parent="dKTOwhcVV6ruJDF4YYmx-2" vertex="1">
          <mxGeometry y="400" width="150" height="50" as="geometry" />
        </mxCell>
        <mxCell id="dKTOwhcVV6ruJDF4YYmx-80" value="Logs" style="text;strokeColor=inherit;align=center;verticalAlign=middle;spacingLeft=10;spacingRight=10;overflow=hidden;points=[[0,0.5],[1,0.5]];portConstraint=eastwest;rotatable=0;whiteSpace=wrap;html=1;rSize=5;fillColor=inherit;fontColor=inherit;fontSize=17;fontStyle=1;" parent="dKTOwhcVV6ruJDF4YYmx-2" vertex="1">
          <mxGeometry y="450" width="150" height="50" as="geometry" />
        </mxCell>
        <mxCell id="dKTOwhcVV6ruJDF4YYmx-6" value="Reports" style="text;strokeColor=inherit;align=center;verticalAlign=middle;spacingLeft=10;spacingRight=10;overflow=hidden;points=[[0,0.5],[1,0.5]];portConstraint=eastwest;rotatable=0;whiteSpace=wrap;html=1;shape=mxgraph.mockup.bottomButton;rSize=10;fillColor=inherit;fontColor=inherit;fontSize=17;fontStyle=1;" parent="dKTOwhcVV6ruJDF4YYmx-2" vertex="1">
          <mxGeometry y="500" width="150" height="50" as="geometry" />
        </mxCell>
        <mxCell id="dKTOwhcVV6ruJDF4YYmx-7" style="edgeStyle=orthogonalEdgeStyle;rounded=0;orthogonalLoop=1;jettySize=auto;html=1;exitX=1;exitY=0.5;exitDx=0;exitDy=0;entryX=-0.001;entryY=0.56;entryDx=0;entryDy=0;entryPerimeter=0;" parent="1" source="dKTOwhcVV6ruJDF4YYmx-4" target="dKTOwhcVV6ruJDF4YYmx-1" edge="1">
          <mxGeometry relative="1" as="geometry" />
        </mxCell>
        <mxCell id="dKTOwhcVV6ruJDF4YYmx-173" value="ID" style="html=1;fillColor=none;strokeColor=none;fontSize=11;align=left;fontColor=#3384FF;fontStyle=1;whiteSpace=wrap" parent="1" vertex="1">
          <mxGeometry x="270" y="-20" width="50" height="20" as="geometry" />
        </mxCell>
        <mxCell id="dKTOwhcVV6ruJDF4YYmx-174" value="Category" style="html=1;fillColor=none;strokeColor=none;fontSize=11;align=left;fontColor=#596780;fontStyle=1;whiteSpace=wrap" parent="1" vertex="1">
          <mxGeometry x="320" y="-20" width="60" height="20" as="geometry" />
        </mxCell>
        <mxCell id="dKTOwhcVV6ruJDF4YYmx-175" value="Sub-category" style="html=1;fillColor=none;strokeColor=none;fontSize=11;align=left;fontColor=#596780;fontStyle=1;whiteSpace=wrap" parent="1" vertex="1">
          <mxGeometry x="420" y="-20" width="76" height="20" as="geometry" />
        </mxCell>
        <mxCell id="dKTOwhcVV6ruJDF4YYmx-176" value="Required Docs" style="html=1;fillColor=none;strokeColor=none;fontSize=11;align=left;fontColor=#596780;fontStyle=1;whiteSpace=wrap" parent="1" vertex="1">
          <mxGeometry x="535" y="-20" width="90" height="20" as="geometry" />
        </mxCell>
        <mxCell id="dKTOwhcVV6ruJDF4YYmx-177" value="" style="shape=line;strokeWidth=2;html=1;strokeColor=#DFE1E5;resizeWidth=1" parent="1" vertex="1">
          <mxGeometry x="270" width="620" height="10" as="geometry" />
        </mxCell>
        <mxCell id="dKTOwhcVV6ruJDF4YYmx-178" value="" style="shape=line;strokeWidth=2;html=1;strokeColor=#3384FF;resizeWidth=1" parent="1" vertex="1">
          <mxGeometry x="270" width="40" height="10" as="geometry" />
        </mxCell>
        <mxCell id="dKTOwhcVV6ruJDF4YYmx-181" value="Conditions" style="html=1;fillColor=none;strokeColor=none;fontSize=11;align=left;fontColor=#596780;fontStyle=1;whiteSpace=wrap" parent="1" vertex="1">
          <mxGeometry x="650" y="-20" width="70" height="20" as="geometry" />
        </mxCell>
        <mxCell id="dKTOwhcVV6ruJDF4YYmx-182" value="Status" style="html=1;fillColor=none;strokeColor=none;fontSize=11;align=left;fontColor=#596780;fontStyle=1;whiteSpace=wrap" parent="1" vertex="1">
          <mxGeometry x="760" y="-20" width="50" height="20" as="geometry" />
        </mxCell>
        <mxCell id="dKTOwhcVV6ruJDF4YYmx-183" value="Actions" style="html=1;fillColor=none;strokeColor=none;fontSize=11;align=left;fontColor=#596780;fontStyle=1;whiteSpace=wrap" parent="1" vertex="1">
          <mxGeometry x="840" y="-20" width="50" height="20" as="geometry" />
        </mxCell>
        <mxCell id="dKTOwhcVV6ruJDF4YYmx-184" value="--------" style="rounded=0;whiteSpace=wrap;html=1;strokeColor=none;align=left;" parent="1" vertex="1">
          <mxGeometry x="270" y="10" width="60" height="30" as="geometry" />
        </mxCell>
        <mxCell id="U9DRrrRyZ-1vm20WkCVu-13" value="Select category" style="html=1;shadow=0;dashed=0;shape=mxgraph.bootstrap.rrect;rSize=5;strokeColor=light-dark(#ffffff, #9577a3);strokeWidth=1;fillColor=light-dark(#d3d3d3, #6a6a6a);whiteSpace=wrap;align=center;verticalAlign=middle;fontStyle=0;fontSize=10;spacingLeft=10;spacingRight=20;" vertex="1" parent="1">
          <mxGeometry x="320" y="10" width="90" height="30" as="geometry" />
        </mxCell>
        <mxCell id="U9DRrrRyZ-1vm20WkCVu-14" value="" style="shape=triangle;direction=south;fillColor=light-dark(#020202, #121212);strokeColor=none;perimeter=none;" vertex="1" parent="U9DRrrRyZ-1vm20WkCVu-13">
          <mxGeometry x="1" y="0.5" width="10" height="5" relative="1" as="geometry">
            <mxPoint x="-17" y="-2.5" as="offset" />
          </mxGeometry>
        </mxCell>
        <mxCell id="U9DRrrRyZ-1vm20WkCVu-26" value="Select sub-category" style="html=1;shadow=0;dashed=0;shape=mxgraph.bootstrap.rrect;rSize=5;strokeColor=light-dark(#ffffff, #9577a3);strokeWidth=1;fillColor=light-dark(#d3d3d3, #6a6a6a);whiteSpace=wrap;align=center;verticalAlign=middle;fontStyle=0;fontSize=10;spacingLeft=10;spacingRight=20;" vertex="1" parent="1">
          <mxGeometry x="420" y="10" width="103" height="30" as="geometry" />
        </mxCell>
        <mxCell id="U9DRrrRyZ-1vm20WkCVu-27" value="" style="shape=triangle;direction=south;fillColor=light-dark(#020202, #121212);strokeColor=none;perimeter=none;" vertex="1" parent="U9DRrrRyZ-1vm20WkCVu-26">
          <mxGeometry x="1" y="0.5" width="10" height="5" relative="1" as="geometry">
            <mxPoint x="-17" y="-2.5" as="offset" />
          </mxGeometry>
        </mxCell>
        <mxCell id="U9DRrrRyZ-1vm20WkCVu-28" value="&lt;div&gt;Select docs&lt;br&gt;&lt;/div&gt;" style="html=1;shadow=0;dashed=0;shape=mxgraph.bootstrap.rrect;rSize=5;strokeColor=light-dark(#ffffff, #9577a3);strokeWidth=1;fillColor=light-dark(#d3d3d3, #6a6a6a);whiteSpace=wrap;align=center;verticalAlign=middle;fontStyle=0;fontSize=10;spacingLeft=10;spacingRight=20;" vertex="1" parent="1">
          <mxGeometry x="535.5" y="10" width="103" height="30" as="geometry" />
        </mxCell>
        <mxCell id="U9DRrrRyZ-1vm20WkCVu-29" value="" style="shape=triangle;direction=south;fillColor=light-dark(#020202, #121212);strokeColor=none;perimeter=none;" vertex="1" parent="U9DRrrRyZ-1vm20WkCVu-28">
          <mxGeometry x="1" y="0.5" width="10" height="5" relative="1" as="geometry">
            <mxPoint x="-17" y="-2.5" as="offset" />
          </mxGeometry>
        </mxCell>
        <mxCell id="U9DRrrRyZ-1vm20WkCVu-30" value="Select conditions" style="html=1;shadow=0;dashed=0;shape=mxgraph.bootstrap.rrect;rSize=5;strokeColor=light-dark(#ffffff, #9577a3);strokeWidth=1;fillColor=light-dark(#d3d3d3, #6a6a6a);whiteSpace=wrap;align=center;verticalAlign=middle;fontStyle=0;fontSize=10;spacingLeft=10;spacingRight=20;" vertex="1" parent="1">
          <mxGeometry x="650" y="10" width="103" height="30" as="geometry" />
        </mxCell>
        <mxCell id="U9DRrrRyZ-1vm20WkCVu-31" value="" style="shape=triangle;direction=south;fillColor=light-dark(#020202, #121212);strokeColor=none;perimeter=none;" vertex="1" parent="U9DRrrRyZ-1vm20WkCVu-30">
          <mxGeometry x="1" y="0.5" width="10" height="5" relative="1" as="geometry">
            <mxPoint x="-17" y="-2.5" as="offset" />
          </mxGeometry>
        </mxCell>
        <mxCell id="U9DRrrRyZ-1vm20WkCVu-32" value="Select" style="html=1;shadow=0;dashed=0;shape=mxgraph.bootstrap.rrect;rSize=5;strokeColor=light-dark(#ffffff, #9577a3);strokeWidth=1;fillColor=light-dark(#d3d3d3, #6a6a6a);whiteSpace=wrap;align=center;verticalAlign=middle;fontStyle=0;fontSize=11;spacingLeft=10;spacingRight=20;" vertex="1" parent="1">
          <mxGeometry x="760" y="10" width="70" height="30" as="geometry" />
        </mxCell>
        <mxCell id="U9DRrrRyZ-1vm20WkCVu-33" value="" style="shape=triangle;direction=south;fillColor=light-dark(#020202, #121212);strokeColor=none;perimeter=none;" vertex="1" parent="U9DRrrRyZ-1vm20WkCVu-32">
          <mxGeometry x="1" y="0.5" width="10" height="5" relative="1" as="geometry">
            <mxPoint x="-17" y="-2.5" as="offset" />
          </mxGeometry>
        </mxCell>
        <mxCell id="U9DRrrRyZ-1vm20WkCVu-36" value="Create" style="rounded=1;fillColor=light-dark(#4ac018, #67b2ff);strokeColor=none;html=1;whiteSpace=wrap;fontColor=#ffffff;align=center;verticalAlign=middle;fontStyle=0;fontSize=10;sketch=0;labelBackgroundColor=none;labelBorderColor=none;" vertex="1" parent="1">
          <mxGeometry x="840" y="10" width="50" height="30" as="geometry" />
        </mxCell>
      </root>
    </mxGraphModel>
  </diagram>
</mxfile>
